<svg xmlns="http://www.w3.org/2000/svg" width="233" height="236" fill="none" viewBox="0 0 233 236"><path fill="#6AD7E5" fill-rule="evenodd" d="M35.604 55.06c-31.43-32 23.714-63.65 42.574-26.85L35.604 55.06Z" clip-rule="evenodd"/><path fill="#000" d="m35.46 56.409-.607-.615a26.306 26.306 0 0 1-8.32-28.37 28.585 28.585 0 0 1 25.005-16.809 28.887 28.887 0 0 1 27.616 17.1l.446.87-44.14 27.824Zm30.201-40.375a25.282 25.282 0 0 0-14-3.302A26.388 26.388 0 0 0 28.546 28.17a23.959 23.959 0 0 0 7.216 25.518L76.775 27.83a29.625 29.625 0 0 0-11.127-11.773l.013-.024Z"/><path fill="#000" fill-rule="evenodd" d="M44.695 42.82c-3.44-5.448-5.035-11.067 1.244-15.021 5.83-3.693 10.71-.157 14.142 5.303L44.695 42.82Z" clip-rule="evenodd"/><path fill="#6AD7E5" fill-rule="evenodd" d="M197.457 55.833c31.431-32-23.714-63.65-42.574-26.85l42.574 26.85Z" clip-rule="evenodd"/><path fill="#000" d="m197.601 57.182.607-.615a26.305 26.305 0 0 0 8.32-28.37 28.58 28.58 0 0 0-25.005-16.809 28.885 28.885 0 0 0-27.616 17.1l-.446.87 44.14 27.824ZM167.4 16.807a25.28 25.28 0 0 1 13.999-3.302 26.39 26.39 0 0 1 23.117 15.437A23.957 23.957 0 0 1 197.3 54.46l-41.014-25.856a29.62 29.62 0 0 1 11.127-11.773l-.013-.024Z"/><path fill="#000" fill-rule="evenodd" d="M188.366 43.593c3.439-5.448 5.034-11.067-1.244-15.021-5.829-3.693-10.71-.157-14.142 5.303l15.386 9.718Z" clip-rule="evenodd"/><path fill="#6AD7E5" stroke="#000" stroke-width="2" d="M82.165 24.766c12.622-7.287 18.746-10.81 25.233-12.188a42.11 42.11 0 0 1 17.51 0c6.487 1.379 12.61 4.9 25.233 12.188l31.454 18.16c12.623 7.288 18.735 10.83 23.172 15.759a42.096 42.096 0 0 1 8.755 15.164c2.05 6.307 2.061 13.371 2.061 27.947v36.32c0 14.575-.011 21.639-2.061 27.947a42.095 42.095 0 0 1-8.755 15.164c-4.437 4.929-10.549 8.471-23.172 15.758l-31.454 18.16c-12.623 7.288-18.746 10.81-25.233 12.189a42.106 42.106 0 0 1-17.51 0c-6.487-1.379-12.61-4.901-25.233-12.189l-31.455-18.16c-12.622-7.287-18.734-10.829-23.172-15.758a42.108 42.108 0 0 1-8.755-15.164c-2.05-6.308-2.06-13.372-2.06-27.947v-36.32c0-14.576.01-21.64 2.06-27.947a42.11 42.11 0 0 1 8.755-15.164c4.438-4.929 10.55-8.47 23.172-15.758l31.455-18.16Z"/><path fill="#fff" fill-rule="evenodd" d="M124.055 109.503c8.124 47.198 85.387 34.769 74.288-12.872-10.012-42.736-76.991-30.908-74.288 12.872Z" clip-rule="evenodd"/><path fill="#000" d="M160.755 140.339a43.252 43.252 0 0 1-14.13-2.317 34.952 34.952 0 0 1-23.643-28.348v-.114a38.218 38.218 0 0 1 34.555-40.247 35.5 35.5 0 0 1 41.864 27.046 33.07 33.07 0 0 1-9.626 33.511 43.94 43.94 0 0 1-29.02 10.469Zm-35.613-30.965a32.898 32.898 0 0 0 22.198 26.603 42.716 42.716 0 0 0 40.976-7.724 30.968 30.968 0 0 0 8.968-31.465 33.399 33.399 0 0 0-39.504-25.316 36.102 36.102 0 0 0-32.638 37.902Z"/><path fill="#fff" fill-rule="evenodd" d="M31.747 117.14c10.526 41.149 76.404 30.565 73.915-10.655-2.975-49.43-83.999-39.89-73.93 10.655" clip-rule="evenodd"/><path fill="#000" d="M66.888 144.287a40.417 40.417 0 0 1-19.237-4.663 34.1 34.1 0 0 1-16.934-22.212A34.482 34.482 0 0 1 42.53 82.056a44.438 44.438 0 0 1 44.152-5.635 33.395 33.395 0 0 1 20.023 30.035 36.171 36.171 0 0 1-32.753 37.316 45.78 45.78 0 0 1-7.065.515Zm-34.112-27.375a34.325 34.325 0 0 0 40.877 24.729 34.11 34.11 0 0 0 30.965-35.099 31.367 31.367 0 0 0-18.793-28.261 42.236 42.236 0 0 0-41.979 5.349 32.452 32.452 0 0 0-11.07 33.282Z"/><path fill="#fff" fill-rule="evenodd" d="M133.38 166.212c.678 6.506.754 13.061.229 19.581-1.573 2.96-4.648 3.275-7.294 4.476a10.732 10.732 0 0 1-8.224-6.422 139.15 139.15 0 0 1 .586-22.154l14.703 4.519Z" clip-rule="evenodd"/><path fill="#000" d="M126.472 191.428h-.329a11.845 11.845 0 0 1-9.082-7.151v-.301a74.42 74.42 0 0 1 .129-15.203c.186-2.332.372-4.735.443-7.152v-1.43l16.892 5.178v.829c0 2.031.171 4.134.343 6.35a53.615 53.615 0 0 1-.114 13.431v.171l-.086.158a9.416 9.416 0 0 1-5.921 4.29c-.673.243-1.302.458-1.917.744l-.358.086Zm-7.28-7.881a9.604 9.604 0 0 0 6.98 5.55c.586-.244 1.187-.458 1.759-.673a7.508 7.508 0 0 0 4.606-3.018 52.682 52.682 0 0 0 0-12.686c-.143-1.959-.286-3.833-.329-5.721l-12.515-3.833c-.1 1.945-.243 3.876-.386 5.721a72.188 72.188 0 0 0-.143 14.66h.028ZM49.91 122.475c6.146 0 11.128-5.391 11.128-12.042S56.056 98.39 49.911 98.39c-6.146 0-11.128 5.392-11.128 12.043 0 6.651 4.982 12.042 11.128 12.042Z"/><path fill="#fff" d="M54.974 116.211c1.446 0 2.617-1.371 2.617-3.061s-1.172-3.061-2.617-3.061c-1.446 0-2.617 1.371-2.617 3.061s1.171 3.061 2.617 3.061Z"/><path fill="#000" d="M143.106 119.472c6.043 0 10.941-5.392 10.941-12.043 0-6.651-4.898-12.043-10.941-12.043-6.043 0-10.941 5.392-10.941 12.043 0 6.651 4.898 12.043 10.941 12.043Z"/><path fill="#fff" d="M148.083 113.207c1.422 0 2.575-1.37 2.575-3.06 0-1.691-1.153-3.061-2.575-3.061-1.421 0-2.574 1.37-2.574 3.061 0 1.69 1.153 3.06 2.574 3.06Z"/><path fill="#fff" fill-rule="evenodd" d="M101.586 165.54c-4.849 11.757 2.703 35.285 15.876 17.936a139.041 139.041 0 0 1 .586-22.155l-16.462 4.219Z" clip-rule="evenodd"/><path fill="#000" d="M108.666 190.798a6.45 6.45 0 0 1-3.233-.886 22.886 22.886 0 0 1-4.877-24.787l.215-.514 18.393-4.749v1.43c-.072 2.432-.272 4.863-.458 7.152a71.463 71.463 0 0 0-.143 14.746v.457l-.272.372c-3.79 5.163-7.065 6.779-9.625 6.779Zm-6.236-24.314a20.85 20.85 0 0 0 4.119 21.454c3.404 1.945 7.151-1.43 9.74-4.791a76.48 76.48 0 0 1 .186-14.746c.143-1.845.286-3.733.386-5.607l-14.431 3.69Z"/><path fill="#F6D2A2" fill-rule="evenodd" d="M103.245 142.885a14.3 14.3 0 0 0-12.94 13.424 14.306 14.306 0 0 0 1.198 6.6c6.221 11.27 20.123-1.002 28.791.157 10.012.2 18.135 10.541 26.13 1.874 8.897-9.64-3.833-19.037-13.787-23.228l-29.392 1.173Z" clip-rule="evenodd"/><path fill="#231F20" d="M139.302 169.531a24.716 24.716 0 0 1-9.168-2.56 27.559 27.559 0 0 0-9.855-2.775h-.128c-3.51.002-6.979.743-10.184 2.174-7.022 2.431-14.989 5.177-19.451-2.861a13.527 13.527 0 0 1 .2-13.115 15.988 15.988 0 0 1 12.429-8.582l29.706-1.258.229.1c7.395 3.118 15.819 8.824 17.263 15.489a11.961 11.961 0 0 1-2.655 9.049 11.948 11.948 0 0 1-8.386 4.31v.029Zm-18.923-7.523a29.385 29.385 0 0 1 10.627 2.946c5.621 2.36 10.012 4.219 14.603-.715a8.303 8.303 0 0 0 2.546-7.552c-1.244-5.721-9.182-10.999-15.733-13.788l-29.12 1.159a13.912 13.912 0 0 0-10.612 7.394 11.331 11.331 0 0 0-.215 10.97c3.547 6.422 10.012 4.205 16.734 1.86a26.542 26.542 0 0 1 11.17-2.274Z"/><path fill="#000" fill-rule="evenodd" d="M102.115 142.413c-.672-15.661 29.206-17.592 32.782-4.505 3.575 13.087-31.266 16.133-32.739 4.519l-.043-.014Z" clip-rule="evenodd"/></svg>